<svg width="19" height="18" viewBox="0 0 19 18" fill="none" xmlns="http://www.w3.org/2000/svg">
<g clip-path="url(#clip0_21789_34628)">
<path d="M13.7179 3.55546C13.7179 3.16305 13.5086 2.80045 13.1688 2.60425L9.73638 0.622571C9.48151 0.475419 9.16749 0.475419 8.91261 0.622571L8.22614 1.01891V14.938L7.12778 14.2515V5.63182L5.44729 6.68212C5.12615 6.88284 4.93106 7.23483 4.93106 7.61353V14.7878C4.93106 15.1802 5.14041 15.5428 5.48024 15.739L8.91261 17.7207C9.16749 17.8679 9.48151 17.8679 9.73638 17.7207L10.4229 17.3244V3.40526L11.5212 4.09173V12.7115L13.2017 11.6612C13.5228 11.4604 13.7179 11.1085 13.7179 10.7297V3.55546Z" fill="white"/>
<path d="M14.8163 3.55546V11.9473L12.0374 13.6841C11.7163 13.8848 11.5212 14.2368 11.5212 14.6155V16.6902L16.5223 13.8029C16.7771 13.6557 16.9341 13.3838 16.9341 13.0895V5.25381C16.9341 4.9595 16.7771 4.68756 16.5223 4.5404L14.8163 3.55546Z" fill="white"/>
<path d="M3.8327 14.7878V6.396L6.61155 4.65923C6.93269 4.45851 7.12778 4.10652 7.12778 3.72782V1.65304L2.12673 4.5404C1.87185 4.68755 1.71484 4.9595 1.71484 5.25381V13.0895C1.71484 13.3838 1.87185 13.6557 2.12673 13.8029L3.8327 14.7878Z" fill="white"/>
</g>
<defs>
<clipPath id="clip0_21789_34628">
<rect width="17.5737" height="17.5737" fill="white" transform="translate(0.538086 0.384766)"/>
</clipPath>
</defs>
</svg>
